# xmcd CD database file
#
# Track frame offsets:
#	150
#	9940
#	20105
#	29800
#	39100
#	51163
#	59478
#	69193
#	81283
#	94515
#	105753
#	116100
#	124423
#	134065
#	145130
#	155093
#	164998
#	174218
#	184050
#	193495
#
# Disc length: 2702 seconds
#
# Revision: 0
# Processed by: cddbd v1.4PL0 Copyright (c) Steve Scherf et al.
# Submitted via: CDex 1.40Release
#
DISCID=210a8c14
DTITLE=Faron Young and The Circle A Wranglers - Same
DYEAR=1900
DGENRE=Country
TTITLE0=Even Tho
TTITLE1=They Made Me Fall In Love With You
TTITLE2=I Hardly Knew It Was You
TTITLE3=Phil's Boogie(Inst.)
TTITLE4=Just Out Of Reach(Of My Two Open Arms)
TTITLE5=I'm Walking The Dog
TTITLE6=You're Right(But I Wish You Were Wrong)
TTITLE7=We've Gone Too Far
TTITLE8=You Win Again
TTITLE9=The Wabash Blues(Inst:)
TTITLE10=Honky Tonk Girl
TTITLE11=Papaya Mama
TTITLE12=Have I Waited Too Long
TTITLE13=Steel Guitar Jubilee(Inst.)
TTITLE14=What's The Use To Love You
TTITLE15=Just Married
TTITLE16=All Right
TTITLE17=Live Fast, Love Hard, Die Young
TTITLE18=Goin' Steady
TTITLE19=Texas Playboy Rag(Inst.)
EXTD=ID3G: 2
EXTT0=
EXTT1=
EXTT2=
EXTT3=
EXTT4=
EXTT5=
EXTT6=
EXTT7=
EXTT8=
EXTT9=
EXTT10=
EXTT11=
EXTT12=
EXTT13=
EXTT14=
EXTT15=
EXTT16=
EXTT17=
EXTT18=
EXTT19=
PLAYORDER=
